<?xml version="1.0" encoding="UTF-8" standalone="no"?>
<!-- Generator: Adobe Illustrator 24.0.2, SVG Export Plug-In . SVG Version: 6.00 Build 0)  -->

<svg
   version="1.1"
   x="0px"
   y="0px"
   viewBox="0 0 113 113"
   xml:space="preserve"
   id="svg19"
   sodipodi:docname="databricks-colored.svg"
   inkscape:version="1.3.2 (091e20e, 2023-11-25, custom)"
   width="113"
   height="113"
   xmlns:inkscape="http://www.inkscape.org/namespaces/inkscape"
   xmlns:sodipodi="http://sodipodi.sourceforge.net/DTD/sodipodi-0.dtd"
   xmlns="http://www.w3.org/2000/svg"
   xmlns:svg="http://www.w3.org/2000/svg"><defs
   id="defs19">
	

		
		
	
			
		</defs><sodipodi:namedview
   id="namedview19"
   pagecolor="#ffffff"
   bordercolor="#000000"
   borderopacity="0.25"
   inkscape:showpageshadow="2"
   inkscape:pageopacity="0.0"
   inkscape:pagecheckerboard="0"
   inkscape:deskcolor="#d1d1d1"
   inkscape:zoom="2.9601665"
   inkscape:cx="365.8578"
   inkscape:cy="56.246836"
   inkscape:window-width="3840"
   inkscape:window-height="2071"
   inkscape:window-x="-9"
   inkscape:window-y="-9"
   inkscape:window-maximized="1"
   inkscape:current-layer="svg19" />
<style
   type="text/css"
   id="style1">
	.st0{fill:#F2F2F2;}
	.st1{fill:none;stroke:#808080;stroke-width:0.5;stroke-miterlimit:10;}
	.st2{fill:#EE3D2C;}
	.st3{fill:none;stroke:#EE3D2C;stroke-miterlimit:10;}
	.st4{fill:none;stroke:#221F1F;stroke-miterlimit:10;}
	.st5{fill:#FFFFFF;}
	.st6{fill:none;stroke:#000000;stroke-miterlimit:10;}
</style>
<g
   id="Alternative_Print_Lock-up">
</g>
<g
   id="Small_Scale_Lock-up">
	<g
   id="g8">
		<g
   id="g7">
			<g
   id="g6">
				<g
   id="g5">
					<g
   id="g4">
						<g
   id="g3">
							<g
   id="g2">
								<g
   id="g1">
								</g>
							</g>
						</g>
					</g>
				</g>
			</g>
		</g>
	</g>
</g>
<polygon
   class="st2"
   points="104.5,63.1 102.1,61.8 52.3,89.8 5.6,63.6 5.6,52.8 52.3,79 104.5,49.6 104.5,29.5 101.9,28 52.3,55.9 8,31.1 52.3,6.2 88.7,26.7 91.9,24.9 91.9,22.4 52.3,0.1 0,29.5 0,32.7 52.3,62.1 98.9,35.8 98.9,46.6 52.3,72.9 2.4,44.8 0,46.1 0,66.5 52.3,95.9 98.9,69.7 98.9,80.5 52.3,106.8 2.4,78.7 0,80 0,83.5 52.3,112.9 104.5,83.5 "
   id="polygon8"
   transform="translate(4.25)" />
<g
   id="Guide">
</g>
</svg>
