<?xml version="1.0" encoding="UTF-8" standalone="no"?>
<!-- Generator: Adobe Illustrator 22.0.1, SVG Export Plug-In . SVG Version: 6.00 Build 0)  -->

<svg
   version="1.1"
   id="Layer_1"
   x="0px"
   y="0px"
   viewBox="0 0 640 480"
   enable-background="new 0 0 640 480"
   xml:space="preserve"
   sodipodi:docname="databricks.svg"
   inkscape:version="1.3.2 (091e20e, 2023-11-25, custom)"
   xmlns:inkscape="http://www.inkscape.org/namespaces/inkscape"
   xmlns:sodipodi="http://sodipodi.sourceforge.net/DTD/sodipodi-0.dtd"
   xmlns="http://www.w3.org/2000/svg"
   xmlns:svg="http://www.w3.org/2000/svg"><defs
   id="defs1" /><sodipodi:namedview
   id="namedview1"
   pagecolor="#ffffff"
   bordercolor="#000000"
   borderopacity="0.25"
   inkscape:showpageshadow="2"
   inkscape:pageopacity="0.0"
   inkscape:pagecheckerboard="0"
   inkscape:deskcolor="#d1d1d1"
   inkscape:zoom="3.90625"
   inkscape:cx="320"
   inkscape:cy="240"
   inkscape:window-width="3840"
   inkscape:window-height="2071"
   inkscape:window-x="-9"
   inkscape:window-y="-9"
   inkscape:window-maximized="1"
   inkscape:current-layer="Layer_1" />
<g
   id="g1"
   style="fill:#ffffff;fill-opacity:1">
	<path
   fill="#EE3D2C"
   d="M505.8,200.5L320.5,305L122,193.5l-9.6,5.2v81.1l208.1,116.7l185.3-104v42.9L320.5,439.7L122,328.2   l-9.6,5.2v13.8l208.1,116.7l207.6-116.7v-81.1l-9.6-5.2L320.2,372L134.4,268v-42.9l185.8,104l207.6-116.7v-79.9l-10.3-5.9   L320.2,237.5L144,139.1l176.2-98.9L465,121.6l12.7-7v-9.8L320,16.1L111.9,132.8v12.7L320,262.1l185.3-104.5v42.9H505.8z"
   id="path1"
   style="fill:#ffffff;fill-opacity:1" />
</g>
<rect
   x="91.3"
   fill="none"
   width="457.4"
   height="480"
   id="rect1" />
</svg>
